<svg xmlns="http://www.w3.org/2000/svg" width="34" height="32" viewBox="0 0 34 32"><path d="M8.811 6.023V3.235a.926.926 0 111.852 0v2.788a.926.926 0 11-1.852 0zM25.497 6.023V3.235a.926.926 0 111.852 0v2.788a.926.926 0 11-1.852 0z"></path><path d="M31.989 10.663H4.172V6.492c0-.766.618-1.388 1.382-1.394h2.321v.926a1.864 1.864 0 003.714.007v-.933h12.983v.926a1.852 1.852 0 103.704 0v-.926h2.32a1.394 1.394 0 011.383 1.394v4.171zM26.144 16.229h.013c1.039 0 1.969.466 2.593 1.2l.004.005A3.387 3.387 0 0132.01 16.3l-.022-.004v-4.707H4.171v19.017c0 .766.618 1.388 1.382 1.394h25.052a1.394 1.394 0 001.383-1.394v-5.61c-.547.457-1.115.87-1.628 1.249-.494.343-.919.673-1.327 1.022l.022-.018a.444.444 0 01-.624 0 14.267 14.267 0 00-1.256-.972l-.049-.032c-1.863-1.338-4.406-3.179-4.406-6.514v-.045a3.457 3.457 0 013.411-3.457h.002zM13.63 25.341a3.66 3.66 0 01-2.321.624l.011.001a5.258 5.258 0 01-2.265-.437l.034.013v-1.149c.305.154.662.288 1.034.382l.037.008c.324.085.696.134 1.079.134h.003a2.299 2.299 0 001.393-.352l-.009.006a1.249 1.249 0 00.457-1.064v.004l.002-.066c0-.37-.201-.694-.499-.868l-.005-.003a3.181 3.181 0 00-1.594-.301l.01-.001h-.692v-1.026h.703c1.26 0 1.896-.435 1.896-1.316.002-.02.002-.043.002-.067 0-.29-.13-.55-.336-.724l-.001-.001a1.529 1.529 0 00-.986-.279h.003c-.31 0-.609.049-.89.14l.02-.006c-.379.13-.707.3-1.005.51l.013-.008-.625-.892a4.131 4.131 0 012.547-.803h-.004a2.984 2.984 0 011.884.52l-.01-.007c.409.313.671.801.671 1.351l-.002.081v-.004l.001.05c0 .463-.169.887-.449 1.213l.002-.002c-.319.346-.744.59-1.224.678l-.014.002v.045c.556.031 1.055.25 1.441.593l-.002-.002a1.7 1.7 0 01.481 1.188l-.002.076v-.004a2.104 2.104 0 01-.788 1.759l-.004.003zm4.796.513h-1.283v-5.131c0-.613.011-1.093.045-1.461l-.301.29-1.216 1.004-.647-.814 2.342-1.84h1.071z"></path><path d="M33.852 19.709a5.405 5.405 0 01-1.715 3.89l-.003.003h-.011c-.714.736-1.562 1.338-2.309 1.885-.379.279-.747.535-1.071.803a27.15 27.15 0 00-1.082-.803c-1.796-1.294-4.026-2.9-4.026-5.766v-.05a2.498 2.498 0 014.689-1.201l.007.013a.491.491 0 00.66.155l-.002.001a.432.432 0 00.155-.154l.001-.002a2.503 2.503 0 012.185-1.316h.001l.055-.001c.315 0 .614.066.885.185l-.014-.006h.011a2.56 2.56 0 011.584 2.363v.002zM16.229.926a.926.926 0 11-1.852 0 .926.926 0 011.852 0zM1.852 28.286a.926.926 0 11-1.852 0 .926.926 0 011.852 0z"></path></svg>