<svg xmlns="http://www.w3.org/2000/svg" width="32" height="32" viewBox="0 0 32 32"><path d="M31 6.883a12.292 12.292 0 01-3.534.969 6.178 6.178 0 002.705-3.402 12.386 12.386 0 01-3.911 1.494A6.137 6.137 0 0021.768 4a6.154 6.154 0 00-5.995 7.555 17.473 17.473 0 01-12.684-6.43 6.103 6.103 0 00-.832 3.093 6.153 6.153 0 002.737 5.122 6.162 6.162 0 01-2.788-.772v.077a6.161 6.161 0 004.936 6.035 6.225 6.225 0 01-1.622.216c-.397 0-.782-.039-1.159-.114a6.159 6.159 0 005.748 4.274 12.346 12.346 0 01-7.643 2.63c-.497 0-.986-.03-1.468-.084a17.398 17.398 0 009.433 2.769c11.321 0 17.509-9.377 17.509-17.509l-.021-.797a12.291 12.291 0 003.078-3.179z"></path></svg>