<svg xmlns="http://www.w3.org/2000/svg" width="32" height="32" viewBox="0 0 32 32"><path d="M16.434 0C7.664 0 3 5.62 3 11.748c0 2.842 1.588 6.386 4.13 7.51.386.174.596.1.682-.258.076-.272.41-1.582.572-2.2a.566.566 0 00-.136-.556c-.844-.976-1.514-2.754-1.514-4.422 0-4.274 3.398-8.424 9.18-8.424 5 0 8.498 3.248 8.498 7.894 0 5.25-2.778 8.882-6.388 8.882-1.998 0-3.486-1.568-3.014-3.508.57-2.31 1.688-4.794 1.688-6.46 0-1.494-.844-2.73-2.568-2.73-2.034 0-3.684 2.014-3.684 4.718 0 1.718.608 2.878.608 2.878S9.042 23.2 8.668 24.718c-.632 2.57.086 6.732.148 7.09.038.198.26.26.384.098.198-.26 2.63-3.73 3.312-6.238.248-.914 1.266-4.62 1.266-4.62.67 1.21 2.604 2.224 4.664 2.224 6.128 0 10.556-5.386 10.556-12.07C28.976 4.794 23.492 0 16.434 0z"></path></svg>